<svg width="44" height="65" viewBox="0 0 44 65" fill="none" xmlns="http://www.w3.org/2000/svg">
<g clip-path="url(#clip0_789_36926)">
<path d="M1.944 52.412V53.048H8.964V55.1H1.872V55.748H9.852V52.412H1.944ZM7.092 56.996H9.852V58.16H7.092V56.996ZM6.24 56.348V58.796H10.728V56.348H6.24ZM2.232 53.768V54.38H9.348V53.768H2.232ZM1.02 56.348V57.032H5.412V56.348H1.02ZM0.552 59.576V60.332H11.448V59.576H0.552ZM8.076 58.784V61.964C8.076 62.12 8.028 62.168 7.812 62.18C7.608 62.192 6.9 62.192 6.096 62.168C6.216 62.408 6.36 62.732 6.396 62.972C7.428 62.972 8.064 62.96 8.46 62.828C8.856 62.708 8.964 62.468 8.964 61.976V58.784H8.076ZM2.772 56.6V58.376H3.612V56.6H2.772ZM0.78 58.352L0.864 59.072C2.136 58.976 3.924 58.844 5.652 58.7V58.016C3.84 58.148 2.004 58.28 0.78 58.352ZM2.544 60.776C3.252 61.196 4.068 61.832 4.452 62.3L5.1 61.712C4.692 61.256 3.864 60.644 3.156 60.26L2.544 60.776ZM15.0934 58.9489C14.8832 58.9489 14.7028 58.8736 14.5522 58.723C14.4016 58.5724 14.3264 58.392 14.3264 58.1818C14.3264 57.9716 14.4016 57.7912 14.5522 57.6406C14.7028 57.4901 14.8832 57.4148 15.0934 57.4148C15.3036 57.4148 15.484 57.4901 15.6346 57.6406C15.7852 57.7912 15.8605 57.9716 15.8605 58.1818C15.8605 58.321 15.8249 58.4489 15.7539 58.5653C15.6857 58.6818 15.5934 58.7756 15.4769 58.8466C15.3633 58.9148 15.2355 58.9489 15.0934 58.9489ZM20.6327 58.22V62.96H21.5327V58.94H26.9687V62.948H27.9047V58.22H20.6327ZM21.1727 60.02V60.692H27.2807V60.02H21.1727ZM21.1727 61.82V62.54H27.3767V61.82H21.1727ZM18.8687 54.692V55.508H29.5127V54.692H18.8687ZM23.7047 53.036V57.896H24.6287V53.036H23.7047ZM23.2607 54.884C22.2767 56.24 20.3567 57.548 18.6287 58.16C18.8327 58.34 19.0967 58.664 19.2287 58.88C20.9687 58.184 22.8887 56.744 23.9807 55.184L23.2607 54.884ZM25.0607 54.908L24.3527 55.22C25.4927 56.66 27.4607 58.064 29.1647 58.748C29.2967 58.52 29.5607 58.196 29.7647 58.016C28.0607 57.44 26.0807 56.168 25.0607 54.908ZM27.5207 52.016C25.7687 52.484 22.5527 52.784 19.8407 52.916C19.9367 53.132 20.0447 53.468 20.0687 53.684C22.8287 53.576 26.1047 53.264 28.2047 52.736L27.5207 52.016ZM35.3447 53.288V54.116H42.8567V53.288H35.3447ZM34.8407 55.508V56.336H43.1927V55.508H34.8407ZM36.9647 51.944V56.12H37.8407V51.944H36.9647ZM40.1687 51.944V56.156H41.0567V51.944H40.1687ZM37.1447 56C36.6287 57.152 35.6087 58.328 34.6487 58.928C34.8407 59.084 35.1287 59.396 35.2727 59.6C36.2927 58.904 37.3367 57.584 37.9127 56.276L37.1447 56ZM40.8887 55.964L40.1447 56.228C40.6847 57.524 41.6927 58.82 42.7487 59.492C42.8927 59.264 43.1807 58.94 43.3847 58.772C42.3647 58.232 41.3807 57.104 40.8887 55.964ZM36.8927 59.576V60.32H41.0327V57.548H37.0367V58.292H40.2047V59.576H36.8927ZM36.4847 59.576V61.748C36.4847 62.708 36.8687 62.936 38.2007 62.936C38.4767 62.936 40.6487 62.936 40.9367 62.936C42.0767 62.936 42.3407 62.6 42.4727 61.088C42.2327 61.04 41.8727 60.92 41.6687 60.776C41.6087 61.964 41.5127 62.132 40.8767 62.132C40.3967 62.132 38.5847 62.132 38.2367 62.132C37.4687 62.132 37.3367 62.06 37.3367 61.736V59.576H36.4847ZM32.6447 52.688C33.3767 53.036 34.2647 53.612 34.6847 54.044L35.2127 53.312C34.7807 52.892 33.8927 52.352 33.1607 52.028L32.6447 52.688ZM32.0327 55.928C32.7767 56.252 33.6767 56.78 34.0967 57.188L34.6127 56.444C34.1687 56.048 33.2687 55.544 32.5367 55.244L32.0327 55.928ZM32.3567 62.252L33.1607 62.804C33.7727 61.688 34.4807 60.2 35.0207 58.928L34.3127 58.388C33.7247 59.756 32.9327 61.328 32.3567 62.252Z" fill="#FF5764"/>
<g clip-path="url(#clip1_789_36926)">
<rect width="32" height="32" fill="#FF5764"/>
<g filter="url(#filter0_d_789_36926)">
<rect x="12" y="12" width="20" height="20" fill="#FF5764"/>
</g>
<rect x="12" y="12" width="32" height="32" fill="#FF5764"/>
</g>
</g>
<defs>
<filter id="filter0_d_789_36926" x="-2" y="2" width="48" height="48" filterUnits="userSpaceOnUse" color-interpolation-filters="sRGB">
<feFlood flood-opacity="0" result="BackgroundImageFix"/>
<feColorMatrix in="SourceAlpha" type="matrix" values="0 0 0 0 0 0 0 0 0 0 0 0 0 0 0 0 0 0 127 0" result="hardAlpha"/>
<feOffset dy="4"/>
<feGaussianBlur stdDeviation="7"/>
<feComposite in2="hardAlpha" operator="out"/>
<feColorMatrix type="matrix" values="0 0 0 0 0 0 0 0 0 0 0 0 0 0 0 0 0 0 0.25 0"/>
<feBlend mode="normal" in2="BackgroundImageFix" result="effect1_dropShadow_789_36926"/>
<feBlend mode="normal" in="SourceGraphic" in2="effect1_dropShadow_789_36926" result="shape"/>
</filter>
<clipPath id="clip0_789_36926">
<rect width="44" height="65" fill="white"/>
</clipPath>
<clipPath id="clip1_789_36926">
<rect width="44" height="44" fill="white"/>
</clipPath>
</defs>
</svg>
